error_11_fix_topleft_kok_vert.ufo
<glyph name="ety001_cid02561_EL" format="1">
  <advance width="1000"/>
  <outline>
    <contour>
      <point x="899" y="711" type="line"/>
      <point x="384" y="711" type="line"/>
      <point x="384" y="681" type="line"/>
      <point x="869" y="681" type="line"/>
      <point x="869" y="510" type="line"/>
      <point x="384" y="510" type="line"/>
      <point x="384" y="480" type="line"/>
      <point x="899" y="480" type="line"/>
    </contour>
    <contour>
      <point x="404" y="438" type="curve"/>
      <point x="404" y="710" type="line"/>
      <point x="375" y="710" type="line"/>
      <point x="375" y="438" type="line"/>
      <point x="375" y="293"/>
      <point x="361" y="104"/>
      <point x="241" y="-34" type="curve"/>
      <point x="249" y="-39"/>
      <point x="259" y="-49"/>
      <point x="264" y="-56" type="curve"/>
      <point x="386" y="88"/>
      <point x="404" y="289"/>
    </contour>
  </outline>
</glyph>
<glyph name="ety007_cid04406_EL" format="1">
  <advance width="1000"/>
  <outline>
    <contour>
      <point x="637" y="703" type="line"/>
      <point x="419" y="703" type="line"/>
      <point x="419" y="673" type="line"/>
      <point x="608" y="673" type="line"/>
      <point x="608" y="508" type="line"/>
      <point x="426" y="508" type="line"/>
      <point x="426" y="478" type="line"/>
      <point x="637" y="478" type="line"/>
    </contour>
    <contour>
      <point x="448" y="560" type="curve"/>
      <point x="448" y="688" type="line"/>
      <point x="419" y="688" type="line"/>
      <point x="419" y="560" type="line"/>
      <point x="419" y="481"/>
      <point x="412" y="374"/>
      <point x="362" y="289" type="curve"/>
      <point x="369" y="286"/>
      <point x="380" y="278"/>
      <point x="385" y="272" type="curve"/>
      <point x="437" y="359"/>
      <point x="448" y="477"/>
    </contour>
  </outline>
</glyph>
<glyph name="ety010_cid05684_H" format="1">
  <advance width="1000"/>
  <outline>
    <contour>
      <point x="898" y="633" type="line"/>
      <point x="553" y="633" type="line"/>
      <point x="553" y="534" type="line"/>
      <point x="780" y="534" type="line"/>
      <point x="780" y="398" type="line"/>
      <point x="544" y="398" type="line"/>
      <point x="544" y="300" type="line"/>
      <point x="898" y="300" type="line"/>
    </contour>
    <contour>
      <point x="521" y="46" type="curve"/>
      <point x="521" y="87"/>
      <point x="635" y="158"/>
      <point x="635" y="158" type="curve"/>
      <point x="635" y="634" type="line"/>
      <point x="513" y="634" type="line"/>
      <point x="513" y="220" type="line"/>
      <point x="513" y="177"/>
      <point x="490" y="150"/>
      <point x="469" y="137" type="curve"/>
      <point x="487" y="118"/>
      <point x="513" y="72"/>
    </contour>
  </outline>
</glyph>
<glyph name="ety011_cid05770_EL" format="1">
  <advance width="1000"/>
  <outline>
    <contour>
      <point x="457" y="785" type="line"/>
      <point x="112" y="785" type="line"/>
      <point x="112" y="756" type="line"/>
      <point x="427" y="756" type="line"/>
      <point x="427" y="509" type="line"/>
      <point x="131" y="509" type="line"/>
      <point x="131" y="479" type="line"/>
      <point x="457" y="479" type="line"/>
    </contour>
    <contour>
      <point x="84" y="245" type="curve"/>
      <point x="84" y="259"/>
      <point x="141" y="288"/>
      <point x="141" y="288" type="curve"/>
      <point x="141" y="784" type="line"/>
      <point x="112" y="784" type="line"/>
      <point x="112" y="334" type="line"/>
      <point x="112" y="297"/>
      <point x="82" y="280"/>
      <point x="67" y="275" type="curve"/>
      <point x="73" y="267"/>
      <point x="81" y="254"/>
    </contour>
  </outline>
</glyph>
<glyph name="ety012_cid05770_H" format="1">
  <advance width="1000"/>
  <outline>
    <contour>
      <point x="485" y="820" type="line"/>
      <point x="90" y="820" type="line"/>
      <point x="90" y="715" type="line"/>
      <point x="356" y="715" type="line"/>
      <point x="356" y="558" type="line"/>
      <point x="134" y="558" type="line"/>
      <point x="134" y="453" type="line"/>
      <point x="485" y="453" type="line"/>
    </contour>
    <contour>
      <point x="89" y="232" type="curve"/>
      <point x="89" y="286"/>
      <point x="213" y="385"/>
      <point x="213" y="385" type="curve"/>
      <point x="213" y="807" type="line"/>
      <point x="91" y="807" type="line"/>
      <point x="91" y="471" type="line"/>
      <point x="91" y="410"/>
      <point x="60" y="371"/>
      <point x="38" y="353" type="curve"/>
      <point x="55" y="327"/>
      <point x="81" y="266"/>
    </contour>
  </outline>
</glyph>
<glyph name="ety018_cid07355_H" format="1">
  <advance width="1000"/>
  <outline>
    <contour>
      <point x="377" y="682" type="line"/>
      <point x="109" y="682" type="line"/>
      <point x="109" y="565" type="line"/>
      <point x="279" y="565" type="line"/>
      <point x="279" y="384" type="line"/>
      <point x="109" y="384" type="line"/>
      <point x="109" y="267" type="line"/>
      <point x="377" y="267" type="line"/>
    </contour>
    <contour>
      <point x="146" y="683" type="line"/>
      <point x="50" y="683" type="line"/>
      <point x="50" y="224" type="line"/>
      <point x="146" y="224" type="line"/>
    </contour>
  </outline>
</glyph>
<glyph name="ety019_cid08420_EL" format="1">
  <advance width="1000"/>
  <outline>
    <contour>
      <point x="619" y="474" type="line"/>
      <point x="397" y="474" type="line"/>
      <point x="397" y="445" type="line"/>
      <point x="589" y="445" type="line"/>
      <point x="589" y="229" type="line"/>
      <point x="403" y="229" type="line"/>
      <point x="403" y="199" type="line"/>
      <point x="619" y="199" type="line"/>
    </contour>
    <contour>
      <point x="374" y="-35" type="curve"/>
      <point x="374" y="-20"/>
      <point x="428" y="10"/>
      <point x="428" y="10" type="curve"/>
      <point x="428" y="473" type="line"/>
      <point x="398" y="473" type="line"/>
      <point x="398" y="56" type="line"/>
      <point x="398" y="18"/>
      <point x="371" y="1"/>
      <point x="356" y="-5" type="curve"/>
      <point x="362" y="-14"/>
      <point x="371" y="-26"/>
    </contour>
  </outline>
</glyph>
<glyph name="ety020_cid08806_H" format="1">
  <advance width="1000"/>
  <outline>
    <contour>
      <point x="821" y="377" type="line"/>
      <point x="405" y="377" type="line"/>
      <point x="405" y="303" type="line"/>
      <point x="708" y="303" type="line"/>
      <point x="708" y="186" type="line"/>
      <point x="405" y="186" type="line"/>
      <point x="405" y="112" type="line"/>
      <point x="821" y="112" type="line"/>
    </contour>
    <contour>
      <point x="356" y="-90" type="curve"/>
      <point x="356" y="-49"/>
      <point x="465" y="23"/>
      <point x="465" y="23" type="curve"/>
      <point x="465" y="378" type="line"/>
      <point x="348" y="378" type="line"/>
      <point x="348" y="86" type="line"/>
      <point x="348" y="43"/>
      <point x="326" y="15"/>
      <point x="306" y="1" type="curve"/>
      <point x="323" y="-18"/>
      <point x="348" y="-64"/>
    </contour>
  </outline>
</glyph>
<glyph name="ety022_cid08813_H" format="1">
  <advance width="1000"/>
  <outline>
    <contour>
      <point x="430" y="569" type="line"/>
      <point x="166" y="569" type="line"/>
      <point x="166" y="467" type="line"/>
      <point x="305" y="467" type="line"/>
      <point x="305" y="286" type="line"/>
      <point x="163" y="286" type="line"/>
      <point x="163" y="184" type="line"/>
      <point x="430" y="184" type="line"/>
    </contour>
    <contour>
      <point x="89" y="-97" type="curve"/>
      <point x="89" y="-52"/>
      <point x="202" y="28"/>
      <point x="202" y="28" type="curve"/>
      <point x="202" y="570" type="line"/>
      <point x="73" y="570" type="line"/>
      <point x="73" y="100" type="line"/>
      <point x="73" y="50"/>
      <point x="50" y="18"/>
      <point x="29" y="1" type="curve"/>
      <point x="49" y="-19"/>
      <point x="79" y="-69"/>
    </contour>
  </outline>
</glyph>
<glyph name="ety024_cid08829_H" format="1">
  <advance width="1000"/>
  <outline>
    <contour>
      <point x="792" y="339" type="line"/>
      <point x="288" y="339" type="line"/>
      <point x="288" y="267" type="line"/>
      <point x="655" y="267" type="line"/>
      <point x="655" y="158" type="line"/>
      <point x="288" y="158" type="line"/>
      <point x="288" y="86" type="line"/>
      <point x="792" y="86" type="line"/>
    </contour>
    <contour>
      <point x="224" y="-90" type="curve"/>
      <point x="224" y="-46"/>
      <point x="356" y="34"/>
      <point x="356" y="34" type="curve"/>
      <point x="356" y="340" type="line"/>
      <point x="215" y="340" type="line"/>
      <point x="215" y="102" type="line"/>
      <point x="215" y="55"/>
      <point x="188" y="25"/>
      <point x="164" y="10" type="curve"/>
      <point x="185" y="-11"/>
      <point x="215" y="-61"/>
    </contour>
  </outline>
</glyph>
<glyph name="ety025_cid08844_EL" format="1">
  <advance width="1000"/>
  <outline>
    <contour>
      <point x="761" y="354" type="line"/>
      <point x="263" y="354" type="line"/>
      <point x="263" y="325" type="line"/>
      <point x="731" y="325" type="line"/>
      <point x="731" y="156" type="line"/>
      <point x="263" y="156" type="line"/>
      <point x="263" y="127" type="line"/>
      <point x="761" y="127" type="line"/>
    </contour>
    <contour>
      <point x="232" y="-68" type="curve"/>
      <point x="232" y="-54"/>
      <point x="276" y="-24"/>
      <point x="276" y="-24" type="curve"/>
      <point x="276" y="353" type="line"/>
      <point x="245" y="353" type="line"/>
      <point x="245" y="23" type="line"/>
      <point x="245" y="-16"/>
      <point x="226" y="-32"/>
      <point x="215" y="-38" type="curve"/>
      <point x="221" y="-46"/>
      <point x="230" y="-61"/>
    </contour>
  </outline>
</glyph>
<glyph name="ety026_cid08844_H" format="1">
  <advance width="1000"/>
  <outline>
    <contour>
      <point x="792" y="320" type="line"/>
      <point x="288" y="320" type="line"/>
      <point x="288" y="251" type="line"/>
      <point x="655" y="251" type="line"/>
      <point x="655" y="146" type="line"/>
      <point x="288" y="146" type="line"/>
      <point x="288" y="78" type="line"/>
      <point x="792" y="78" type="line"/>
    </contour>
    <contour>
      <point x="224" y="-90" type="curve"/>
      <point x="224" y="-48"/>
      <point x="356" y="29"/>
      <point x="356" y="29" type="curve"/>
      <point x="356" y="322" type="line"/>
      <point x="215" y="322" type="line"/>
      <point x="215" y="94" type="line"/>
      <point x="215" y="49"/>
      <point x="188" y="20"/>
      <point x="164" y="6" type="curve"/>
      <point x="185" y="-14"/>
      <point x="215" y="-63"/>
    </contour>
  </outline>
</glyph>
<glyph name="ety029_cid09303_H" format="1">
  <advance width="1000"/>
  <outline>
    <contour>
      <point x="839" y="412" type="line"/>
      <point x="295" y="412" type="line"/>
      <point x="295" y="360" type="line"/>
      <point x="698" y="360" type="line"/>
      <point x="698" y="266" type="line"/>
      <point x="295" y="266" type="line"/>
      <point x="295" y="213" type="line"/>
      <point x="839" y="213" type="line"/>
    </contour>
    <contour>
      <point x="324" y="413" type="line"/>
      <point x="183" y="413" type="line"/>
      <point x="183" y="80" type="line"/>
      <point x="324" y="80" type="line"/>
    </contour>
  </outline>
</glyph>
<glyph name="ety030_cid10642_H" format="1">
  <advance width="1000"/>
  <outline>
    <contour>
      <point x="624" y="830" type="line"/>
      <point x="405" y="830" type="line"/>
      <point x="405" y="741" type="line"/>
      <point x="516" y="741" type="line"/>
      <point x="516" y="707" type="line"/>
      <point x="405" y="707" type="line"/>
      <point x="405" y="618" type="line"/>
      <point x="624" y="618" type="line"/>
    </contour>
    <contour>
      <point x="360" y="440" type="curve"/>
      <point x="360" y="474"/>
      <point x="463" y="517"/>
      <point x="463" y="517" type="curve"/>
      <point x="463" y="829" type="line"/>
      <point x="353" y="829" type="line"/>
      <point x="353" y="590" type="line"/>
      <point x="353" y="554"/>
      <point x="340" y="541"/>
      <point x="324" y="533" type="curve"/>
      <point x="339" y="513"/>
      <point x="356" y="466"/>
    </contour>
  </outline>
</glyph>
<glyph name="ety032_cid13676_H" format="1">
  <advance width="1000"/>
  <outline>
    <contour>
      <point x="522" y="816" type="line"/>
      <point x="142" y="816" type="line"/>
      <point x="142" y="714" type="line"/>
      <point x="386" y="714" type="line"/>
      <point x="386" y="560" type="line"/>
      <point x="149" y="560" type="line"/>
      <point x="149" y="458" type="line"/>
      <point x="522" y="458" type="line"/>
    </contour>
    <contour>
      <point x="92" y="228" type="curve"/>
      <point x="92" y="267"/>
      <point x="227" y="319"/>
      <point x="227" y="319" type="curve"/>
      <point x="227" y="816" type="line"/>
      <point x="94" y="817" type="line"/>
      <point x="94" y="391" type="line"/>
      <point x="94" y="351"/>
      <point x="73" y="335"/>
      <point x="52" y="327" type="curve"/>
      <point x="68" y="306"/>
      <point x="87" y="257"/>
    </contour>
  </outline>
</glyph>
<glyph name="ety033_cid15830_H" format="1">
  <advance width="1000"/>
  <outline>
    <contour>
      <point x="262" y="519" type="curve"/>
      <point x="262" y="816" type="line"/>
      <point x="123" y="816" type="line"/>
      <point x="123" y="519" type="line"/>
      <point x="123" y="360"/>
      <point x="115" y="133"/>
      <point x="16" y="-19" type="curve"/>
      <point x="51" y="-32"/>
      <point x="112" y="-67"/>
      <point x="139" y="-90" type="curve"/>
      <point x="245" y="75"/>
      <point x="262" y="342"/>
    </contour>
    <contour>
      <point x="911" y="817" type="line"/>
      <point x="214" y="817" type="line"/>
      <point x="214" y="692" type="line"/>
      <point x="764" y="692" type="line"/>
      <point x="764" y="636" type="line"/>
      <point x="214" y="636" type="line"/>
      <point x="214" y="510" type="line"/>
      <point x="911" y="510" type="line"/>
    </contour>
  </outline>
</glyph>
<glyph name="ety034_cid15869_EL" format="1">
  <advance width="1000"/>
  <outline>
    <contour>
      <point x="183" y="493" type="curve"/>
      <point x="183" y="778" type="line"/>
      <point x="154" y="778" type="line"/>
      <point x="154" y="493" type="line"/>
      <point x="154" y="334"/>
      <point x="144" y="119"/>
      <point x="47" y="-40" type="curve"/>
      <point x="54" y="-43"/>
      <point x="67" y="-51"/>
      <point x="72" y="-57" type="curve"/>
      <point x="171" y="105"/>
      <point x="183" y="331"/>
    </contour>
    <contour>
      <point x="887" y="777" type="line"/>
      <point x="169" y="777" type="line"/>
      <point x="169" y="748" type="line"/>
      <point x="858" y="748" type="line"/>
      <point x="858" y="604" type="line"/>
      <point x="169" y="604" type="line"/>
      <point x="169" y="574" type="line"/>
      <point x="887" y="574" type="line"/>
    </contour>
  </outline>
</glyph>
<glyph name="ety035_cid17777_H" format="1">
  <advance width="1000"/>
  <outline>
    <contour>
      <point x="823" y="832" type="line"/>
      <point x="273" y="832" type="line"/>
      <point x="273" y="734" type="line"/>
      <point x="685" y="734" type="line"/>
      <point x="685" y="594" type="line"/>
      <point x="273" y="594" type="line"/>
      <point x="273" y="496" type="line"/>
      <point x="823" y="496" type="line"/>
    </contour>
    <contour>
      <point x="170" y="226" type="curve"/>
      <point x="170" y="275"/>
      <point x="311" y="361"/>
      <point x="311" y="361" type="curve"/>
      <point x="311" y="833" type="line"/>
      <point x="160" y="833" type="line"/>
      <point x="160" y="426" type="line"/>
      <point x="160" y="373"/>
      <point x="135" y="344"/>
      <point x="111" y="328" type="curve"/>
      <point x="132" y="308"/>
      <point x="161" y="256"/>
    </contour>
  </outline>
</glyph>
<glyph name="ety038_cid19130_EL" format="1">
  <advance width="1000"/>
  <outline>
    <contour>
      <point x="477" y="299" type="line"/>
      <point x="448" y="299" type="line"/>
      <point x="448" y="-1" type="line"/>
      <point x="477" y="-1" type="line"/>
    </contour>
    <contour>
      <point x="701" y="298" type="line"/>
      <point x="467" y="298" type="line"/>
      <point x="467" y="269" type="line"/>
      <point x="672" y="269" type="line"/>
      <point x="672" y="94" type="line"/>
      <point x="467" y="94" type="line"/>
      <point x="467" y="65" type="line"/>
      <point x="701" y="65" type="line"/>
    </contour>
  </outline>
</glyph>
<glyph name="ety041_cid20448_EL" format="1">
  <advance width="1000"/>
  <outline>
    <contour>
      <point x="470" y="703" type="line"/>
      <point x="145" y="703" type="line"/>
      <point x="145" y="673" type="line"/>
      <point x="440" y="673" type="line"/>
      <point x="440" y="508" type="line"/>
      <point x="157" y="508" type="line"/>
      <point x="157" y="478" type="line"/>
      <point x="470" y="478" type="line"/>
    </contour>
    <contour>
      <point x="175" y="560" type="curve"/>
      <point x="175" y="688" type="line"/>
      <point x="145" y="688" type="line"/>
      <point x="145" y="560" type="line"/>
      <point x="145" y="478"/>
      <point x="133" y="372"/>
      <point x="59" y="289" type="curve"/>
      <point x="66" y="286"/>
      <point x="77" y="278"/>
      <point x="82" y="271" type="curve"/>
      <point x="158" y="356"/>
      <point x="175" y="474"/>
    </contour>
  </outline>
</glyph>
<glyph name="ety044_cid22963_H" format="1">
  <advance width="1000"/>
  <outline>
    <contour>
      <point x="849" y="813" type="line"/>
      <point x="184" y="813" type="line"/>
      <point x="184" y="679" type="line"/>
      <point x="701" y="679" type="line"/>
      <point x="701" y="600" type="line"/>
      <point x="184" y="600" type="line"/>
      <point x="184" y="466" type="line"/>
      <point x="849" y="466" type="line"/>
    </contour>
    <contour>
      <point x="114" y="-101" type="curve"/>
      <point x="114" y="-46"/>
      <point x="259" y="28"/>
      <point x="259" y="28" type="curve"/>
      <point x="259" y="814" type="line"/>
      <point x="106" y="814" type="line"/>
      <point x="106" y="121" type="line"/>
      <point x="106" y="74"/>
      <point x="76" y="43"/>
      <point x="50" y="28" type="curve"/>
      <point x="73" y="-1"/>
      <point x="104" y="-64"/>
    </contour>
  </outline>
</glyph>
<glyph name="ety045_cid22968_EL" format="1">
  <advance width="1000"/>
  <outline>
    <contour>
      <point x="905" y="785" type="line"/>
      <point x="457" y="785" type="line"/>
      <point x="457" y="756" type="line"/>
      <point x="875" y="756" type="line"/>
      <point x="875" y="563" type="line"/>
      <point x="457" y="563" type="line"/>
      <point x="457" y="533" type="line"/>
      <point x="905" y="533" type="line"/>
    </contour>
    <contour>
      <point x="415" y="-73" type="curve"/>
      <point x="415" y="-61"/>
      <point x="469" y="-29"/>
      <point x="469" y="-29" type="curve"/>
      <point x="469" y="786" type="line"/>
      <point x="439" y="786" type="line"/>
      <point x="439" y="17" type="line"/>
      <point x="439" y="-21"/>
      <point x="412" y="-38"/>
      <point x="397" y="-44" type="curve"/>
      <point x="404" y="-53"/>
      <point x="412" y="-65"/>
    </contour>
  </outline>
</glyph>
<glyph name="ety046_cid22968_H" format="1">
  <advance width="1000"/>
  <outline>
    <contour>
      <point x="929" y="823" type="line"/>
      <point x="476" y="823" type="line"/>
      <point x="476" y="688" type="line"/>
      <point x="786" y="688" type="line"/>
      <point x="786" y="616" type="line"/>
      <point x="476" y="616" type="line"/>
      <point x="476" y="481" type="line"/>
      <point x="929" y="481" type="line"/>
    </contour>
    <contour>
      <point x="404" y="-96" type="curve"/>
      <point x="404" y="-43"/>
      <point x="546" y="61"/>
      <point x="546" y="61" type="curve"/>
      <point x="546" y="824" type="line"/>
      <point x="401" y="824" type="line"/>
      <point x="401" y="132" type="line"/>
      <point x="401" y="74"/>
      <point x="358" y="29"/>
      <point x="329" y="8" type="curve"/>
      <point x="353" y="-14"/>
      <point x="391" y="-66"/>
    </contour>
  </outline>
</glyph>
<glyph name="ety048_cid23753_EL" format="1">
  <advance width="1000"/>
  <outline>
    <contour>
      <point x="878" y="485" type="line"/>
      <point x="333" y="485" type="line"/>
      <point x="333" y="456" type="line"/>
      <point x="849" y="456" type="line"/>
      <point x="849" y="163" type="line"/>
      <point x="333" y="163" type="line"/>
      <point x="333" y="133" type="line"/>
      <point x="878" y="133" type="line"/>
    </contour>
    <contour>
      <point x="351" y="484" type="line"/>
      <point x="322" y="484" type="line"/>
      <point x="322" y="74" type="line"/>
      <point x="351" y="74" type="line"/>
    </contour>
  </outline>
</glyph>
<glyph name="ety049_cid26078_H" format="1">
  <advance width="1000"/>
  <outline>
    <contour>
      <point x="916" y="754" type="line"/>
      <point x="486" y="754" type="line"/>
      <point x="486" y="630" type="line"/>
      <point x="775" y="630" type="line"/>
      <point x="775" y="409" type="line"/>
      <point x="486" y="409" type="line"/>
      <point x="486" y="285" type="line"/>
      <point x="916" y="285" type="line"/>
    </contour>
    <contour>
      <point x="408" y="-100" type="curve"/>
      <point x="408" y="-48"/>
      <point x="545" y="55"/>
      <point x="545" y="55" type="curve"/>
      <point x="545" y="755" type="line"/>
      <point x="402" y="755" type="line"/>
      <point x="402" y="126" type="line"/>
      <point x="402" y="68"/>
      <point x="362" y="24"/>
      <point x="334" y="3" type="curve"/>
      <point x="357" y="-18"/>
      <point x="395" y="-70"/>
    </contour>
  </outline>
</glyph>
<glyph name="ety051_cid28019_EL" format="1">
  <advance width="1000"/>
  <outline>
    <contour>
      <point x="300" y="763" type="line"/>
      <point x="102" y="763" type="line"/>
      <point x="102" y="733" type="line"/>
      <point x="271" y="733" type="line"/>
      <point x="271" y="131" type="line"/>
      <point x="102" y="131" type="line"/>
      <point x="102" y="101" type="line"/>
      <point x="300" y="101" type="line"/>
    </contour>
    <contour>
      <point x="115" y="764" type="line"/>
      <point x="85" y="764" type="line"/>
      <point x="85" y="9" type="line"/>
      <point x="115" y="9" type="line"/>
    </contour>
  </outline>
</glyph>
<glyph name="ety052_cid28033_EL" format="1">
  <advance width="1000"/>
  <outline>
    <contour>
      <point x="917" y="711" type="line"/>
      <point x="432" y="711" type="line"/>
      <point x="432" y="681" type="line"/>
      <point x="888" y="681" type="line"/>
      <point x="888" y="510" type="line"/>
      <point x="432" y="510" type="line"/>
      <point x="432" y="480" type="line"/>
      <point x="917" y="480" type="line"/>
    </contour>
    <contour>
      <point x="446" y="433" type="curve"/>
      <point x="446" y="710" type="line"/>
      <point x="417" y="710" type="line"/>
      <point x="417" y="434" type="line"/>
      <point x="417" y="286"/>
      <point x="403" y="94"/>
      <point x="283" y="-47" type="curve"/>
      <point x="291" y="-51"/>
      <point x="301" y="-62"/>
      <point x="306" y="-68" type="curve"/>
      <point x="428" y="78"/>
      <point x="446" y="282"/>
    </contour>
  </outline>
</glyph>
<glyph name="ety053_cid28268_H" format="1">
  <advance width="1000"/>
  <outline>
    <contour>
      <point x="430" y="154" type="line"/>
      <point x="315" y="154" type="line"/>
      <point x="315" y="-67" type="line"/>
      <point x="430" y="-67" type="line"/>
    </contour>
    <contour>
      <point x="684" y="155" type="line"/>
      <point x="393" y="155" type="line"/>
      <point x="393" y="73" type="line"/>
      <point x="564" y="73" type="line"/>
      <point x="564" y="41" type="line"/>
      <point x="393" y="41" type="line"/>
      <point x="393" y="-41" type="line"/>
      <point x="684" y="-41" type="line"/>
    </contour>
  </outline>
</glyph>
<glyph name="ety056_cid28367_H" format="1">
  <advance width="1000"/>
  <outline>
    <contour>
      <point x="372" y="501" type="line"/>
      <point x="153" y="501" type="line"/>
      <point x="153" y="375" type="line"/>
      <point x="253" y="375" type="line"/>
      <point x="253" y="150" type="line"/>
      <point x="153" y="150" type="line"/>
      <point x="153" y="24" type="line"/>
      <point x="372" y="24" type="line"/>
    </contour>
    <contour>
      <point x="215" y="500" type="line"/>
      <point x="97" y="500" type="line"/>
      <point x="97" y="-49" type="line"/>
      <point x="215" y="-49" type="line"/>
    </contour>
  </outline>
</glyph>
<glyph name="ety057_cid28393_H" format="1">
  <advance width="1000"/>
  <outline>
    <contour>
      <point x="388" y="501" type="line"/>
      <point x="166" y="501" type="line"/>
      <point x="166" y="375" type="line"/>
      <point x="269" y="375" type="line"/>
      <point x="269" y="150" type="line"/>
      <point x="166" y="150" type="line"/>
      <point x="166" y="24" type="line"/>
      <point x="388" y="24" type="line"/>
    </contour>
    <contour>
      <point x="215" y="502" type="line"/>
      <point x="97" y="502" type="line"/>
      <point x="97" y="-47" type="line"/>
      <point x="215" y="-47" type="line"/>
    </contour>
  </outline>
</glyph>
<glyph name="ety058_cid28578_EL" format="1">
  <advance width="1000"/>
  <outline>
    <contour>
      <point x="322" y="474" type="line"/>
      <point x="144" y="474" type="line"/>
      <point x="144" y="445" type="line"/>
      <point x="292" y="445" type="line"/>
      <point x="292" y="91" type="line"/>
      <point x="144" y="91" type="line"/>
      <point x="144" y="62" type="line"/>
      <point x="322" y="62" type="line"/>
    </contour>
    <contour>
      <point x="167" y="473" type="line"/>
      <point x="134" y="473" type="line"/>
      <point x="134" y="-26" type="line"/>
      <point x="167" y="-26" type="line"/>
    </contour>
  </outline>
</glyph>
<glyph name="ety060_cid30145_EL" format="1">
  <advance width="1000"/>
  <outline>
    <contour>
      <point x="764" y="417" type="line"/>
      <point x="248" y="417" type="line"/>
      <point x="248" y="387" type="line"/>
      <point x="734" y="387" type="line"/>
      <point x="734" y="191" type="line"/>
      <point x="248" y="191" type="line"/>
      <point x="248" y="162" type="line"/>
      <point x="764" y="162" type="line"/>
    </contour>
    <contour>
      <point x="222" y="-63" type="curve"/>
      <point x="222" y="-48"/>
      <point x="265" y="-18"/>
      <point x="265" y="-18" type="curve"/>
      <point x="265" y="416" type="line"/>
      <point x="234" y="416" type="line"/>
      <point x="234" y="29" type="line"/>
      <point x="234" y="-11"/>
      <point x="215" y="-26"/>
      <point x="204" y="-32" type="curve"/>
      <point x="210" y="-40"/>
      <point x="219" y="-55"/>
    </contour>
  </outline>
</glyph>
<glyph name="ety066_cid34952_EL" format="1">
  <advance width="1000"/>
  <outline>
    <contour>
      <point x="463" y="559" type="line"/>
      <point x="133" y="559" type="line"/>
      <point x="133" y="529" type="line"/>
      <point x="433" y="529" type="line"/>
      <point x="433" y="261" type="line"/>
      <point x="133" y="261" type="line"/>
      <point x="133" y="231" type="line"/>
      <point x="463" y="231" type="line"/>
    </contour>
    <contour>
      <point x="97" y="-63" type="curve"/>
      <point x="97" y="-48"/>
      <point x="153" y="-19"/>
      <point x="153" y="-19" type="curve"/>
      <point x="153" y="560" type="line"/>
      <point x="121" y="560" type="line"/>
      <point x="121" y="27" type="line"/>
      <point x="121" y="-12"/>
      <point x="94" y="-25"/>
      <point x="80" y="-31" type="curve"/>
      <point x="86" y="-40"/>
      <point x="94" y="-54"/>
    </contour>
  </outline>
</glyph>
<glyph name="ety067_cid35151_H" format="1">
  <advance width="1000"/>
  <outline>
    <contour>
      <point x="895" y="615" type="line"/>
      <point x="229" y="615" type="line"/>
      <point x="229" y="526" type="line"/>
      <point x="752" y="526" type="line"/>
      <point x="752" y="491" type="line"/>
      <point x="229" y="491" type="line"/>
      <point x="229" y="403" type="line"/>
      <point x="895" y="403" type="line"/>
    </contour>
    <contour>
      <point x="266" y="390" type="curve"/>
      <point x="266" y="616" type="line"/>
      <point x="125" y="616" type="line"/>
      <point x="125" y="391" type="line"/>
      <point x="125" y="285"/>
      <point x="115" y="113"/>
      <point x="20" y="16" type="curve"/>
      <point x="56" y="-8"/>
      <point x="102" y="-54"/>
      <point x="124" y="-84" type="curve"/>
      <point x="245" y="45"/>
      <point x="266" y="241"/>
    </contour>
  </outline>
</glyph>
<glyph name="ety069_cid36183_EL" format="1">
  <advance width="1000"/>
  <outline>
    <contour>
      <point x="912" y="711" type="line"/>
      <point x="488" y="711" type="line"/>
      <point x="488" y="681" type="line"/>
      <point x="886" y="681" type="line"/>
      <point x="886" y="510" type="line"/>
      <point x="488" y="510" type="line"/>
      <point x="488" y="480" type="line"/>
      <point x="912" y="480" type="line"/>
    </contour>
    <contour>
      <point x="498" y="439" type="curve"/>
      <point x="498" y="710" type="line"/>
      <point x="471" y="710" type="line"/>
      <point x="471" y="439" type="line"/>
      <point x="471" y="297"/>
      <point x="461" y="108"/>
      <point x="375" y="-31" type="curve"/>
      <point x="381" y="-35"/>
      <point x="392" y="-47"/>
      <point x="396" y="-55" type="curve"/>
      <point x="485" y="90"/>
      <point x="498" y="292"/>
    </contour>
  </outline>
</glyph>
<glyph name="ety071_cid36337_H" format="1">
  <advance width="1000"/>
  <outline>
    <contour>
      <point x="921" y="815" type="line"/>
      <point x="654" y="815" type="line"/>
      <point x="654" y="708" type="line"/>
      <point x="811" y="708" type="line"/>
      <point x="811" y="512" type="line"/>
      <point x="654" y="512" type="line"/>
      <point x="654" y="405" type="line"/>
      <point x="921" y="405" type="line"/>
    </contour>
    <contour>
      <point x="612" y="43" type="curve"/>
      <point x="612" y="82"/>
      <point x="718" y="114"/>
      <point x="718" y="114" type="curve"/>
      <point x="718" y="814" type="line"/>
      <point x="607" y="814" type="line"/>
      <point x="607" y="204" type="line"/>
      <point x="607" y="170"/>
      <point x="594" y="160"/>
      <point x="576" y="153" type="curve"/>
      <point x="592" y="127"/>
      <point x="607" y="74"/>
    </contour>
  </outline>
</glyph>
<glyph name="ety072_cid36461_H" format="1">
  <advance width="1000"/>
  <outline>
    <contour>
      <point x="857" y="831" type="line"/>
      <point x="194" y="831" type="line"/>
      <point x="194" y="740" type="line"/>
      <point x="717" y="740" type="line"/>
      <point x="717" y="715" type="line"/>
      <point x="194" y="715" type="line"/>
      <point x="194" y="624" type="line"/>
      <point x="857" y="624" type="line"/>
    </contour>
    <contour>
      <point x="160" y="335" type="curve"/>
      <point x="160" y="377"/>
      <point x="291" y="449"/>
      <point x="291" y="449" type="curve"/>
      <point x="291" y="832" type="line"/>
      <point x="151" y="832" type="line"/>
      <point x="151" y="516" type="line"/>
      <point x="151" y="472"/>
      <point x="125" y="446"/>
      <point x="103" y="432" type="curve"/>
      <point x="123" y="411"/>
      <point x="151" y="363"/>
    </contour>
  </outline>
</glyph>
<glyph name="ety073_cid36954_H" format="1">
  <advance width="1000"/>
  <outline>
    <contour>
      <point x="430" y="163" type="line"/>
      <point x="315" y="163" type="line"/>
      <point x="315" y="-71" type="line"/>
      <point x="430" y="-71" type="line"/>
    </contour>
    <contour>
      <point x="678" y="164" type="line"/>
      <point x="393" y="164" type="line"/>
      <point x="393" y="82" type="line"/>
      <point x="558" y="82" type="line"/>
      <point x="558" y="44" type="line"/>
      <point x="393" y="44" type="line"/>
      <point x="393" y="-38" type="line"/>
      <point x="678" y="-38" type="line"/>
    </contour>
  </outline>
</glyph>
<glyph name="ety074_cid36955_H" format="1">
  <advance width="1000"/>
  <outline>
    <contour>
      <point x="430" y="183" type="line"/>
      <point x="315" y="183" type="line"/>
      <point x="315" y="-60" type="line"/>
      <point x="430" y="-60" type="line"/>
    </contour>
    <contour>
      <point x="678" y="184" type="line"/>
      <point x="393" y="184" type="line"/>
      <point x="393" y="94" type="line"/>
      <point x="558" y="94" type="line"/>
      <point x="558" y="55" type="line"/>
      <point x="393" y="55" type="line"/>
      <point x="393" y="-35" type="line"/>
      <point x="678" y="-35" type="line"/>
    </contour>
  </outline>
</glyph>
<glyph name="ety081_cid44368_H" format="1">
  <advance width="1000"/>
  <outline>
    <contour>
      <point x="785" y="339" type="line"/>
      <point x="263" y="339" type="line"/>
      <point x="263" y="260" type="line"/>
      <point x="648" y="260" type="line"/>
      <point x="648" y="154" type="line"/>
      <point x="263" y="154" type="line"/>
      <point x="263" y="74" type="line"/>
      <point x="785" y="74" type="line"/>
    </contour>
    <contour>
      <point x="201" y="-97" type="curve"/>
      <point x="201" y="-51"/>
      <point x="333" y="17"/>
      <point x="333" y="17" type="curve"/>
      <point x="333" y="338" type="line"/>
      <point x="203" y="338" type="line"/>
      <point x="203" y="111" type="line"/>
      <point x="203" y="65"/>
      <point x="178" y="43"/>
      <point x="157" y="31" type="curve"/>
      <point x="175" y="2"/>
      <point x="195" y="-61"/>
    </contour>
  </outline>
</glyph>
<glyph name="ety082_cid44369_H" format="1">
  <advance width="1000"/>
  <outline>
    <contour>
      <point x="801" y="341" type="line"/>
      <point x="252" y="341" type="line"/>
      <point x="252" y="260" type="line"/>
      <point x="667" y="260" type="line"/>
      <point x="667" y="154" type="line"/>
      <point x="252" y="154" type="line"/>
      <point x="252" y="73" type="line"/>
      <point x="801" y="73" type="line"/>
    </contour>
    <contour>
      <point x="190" y="-97" type="curve"/>
      <point x="190" y="-57"/>
      <point x="323" y="0"/>
      <point x="323" y="0" type="curve"/>
      <point x="323" y="340" type="line"/>
      <point x="193" y="340" type="line"/>
      <point x="193" y="81" type="line"/>
      <point x="193" y="40"/>
      <point x="167" y="21"/>
      <point x="145" y="11" type="curve"/>
      <point x="163" y="-13"/>
      <point x="184" y="-67"/>
    </contour>
  </outline>
</glyph>
<glyph name="ety084_cid44403_H" format="1">
  <advance width="1000"/>
  <outline>
    <contour>
      <point x="792" y="324" type="line"/>
      <point x="288" y="324" type="line"/>
      <point x="288" y="252" type="line"/>
      <point x="655" y="252" type="line"/>
      <point x="655" y="155" type="line"/>
      <point x="288" y="155" type="line"/>
      <point x="288" y="83" type="line"/>
      <point x="792" y="83" type="line"/>
    </contour>
    <contour>
      <point x="214" y="-101" type="curve"/>
      <point x="214" y="-58"/>
      <point x="354" y="12"/>
      <point x="354" y="12" type="curve"/>
      <point x="354" y="323" type="line"/>
      <point x="216" y="323" type="line"/>
      <point x="216" y="95" type="line"/>
      <point x="216" y="50"/>
      <point x="186" y="24"/>
      <point x="161" y="11" type="curve"/>
      <point x="181" y="-14"/>
      <point x="206" y="-70"/>
    </contour>
  </outline>
</glyph>
<glyph name="ety085_cid44410_EL" format="1">
  <advance width="1000"/>
  <outline>
    <contour>
      <point x="737" y="350" type="line"/>
      <point x="263" y="350" type="line"/>
      <point x="263" y="321" type="line"/>
      <point x="708" y="321" type="line"/>
      <point x="708" y="155" type="line"/>
      <point x="263" y="155" type="line"/>
      <point x="263" y="126" type="line"/>
      <point x="737" y="126" type="line"/>
    </contour>
    <contour>
      <point x="232" y="-65" type="curve"/>
      <point x="232" y="-50"/>
      <point x="276" y="-20"/>
      <point x="276" y="-20" type="curve"/>
      <point x="276" y="349" type="line"/>
      <point x="245" y="349" type="line"/>
      <point x="245" y="27" type="line"/>
      <point x="245" y="-13"/>
      <point x="226" y="-28"/>
      <point x="215" y="-34" type="curve"/>
      <point x="221" y="-42"/>
      <point x="230" y="-57"/>
    </contour>
  </outline>
</glyph>
<glyph name="ety086_cid44410_H" format="1">
  <advance width="1000"/>
  <outline>
    <contour>
      <point x="783" y="324" type="line"/>
      <point x="294" y="324" type="line"/>
      <point x="294" y="255" type="line"/>
      <point x="651" y="255" type="line"/>
      <point x="651" y="149" type="line"/>
      <point x="294" y="149" type="line"/>
      <point x="294" y="80" type="line"/>
      <point x="783" y="80" type="line"/>
    </contour>
    <contour>
      <point x="232" y="-90" type="curve"/>
      <point x="232" y="-49"/>
      <point x="360" y="19"/>
      <point x="360" y="19" type="curve"/>
      <point x="360" y="325" type="line"/>
      <point x="223" y="325" type="line"/>
      <point x="223" y="90" type="line"/>
      <point x="223" y="49"/>
      <point x="200" y="24"/>
      <point x="178" y="11" type="curve"/>
      <point x="198" y="-10"/>
      <point x="224" y="-61"/>
    </contour>
  </outline>
</glyph>
<glyph name="ety088_cid44419_H" format="1">
  <advance width="1000"/>
  <outline>
    <contour>
      <point x="792" y="339" type="line"/>
      <point x="288" y="339" type="line"/>
      <point x="288" y="267" type="line"/>
      <point x="655" y="267" type="line"/>
      <point x="655" y="158" type="line"/>
      <point x="288" y="158" type="line"/>
      <point x="288" y="86" type="line"/>
      <point x="792" y="86" type="line"/>
    </contour>
    <contour>
      <point x="209" y="-89" type="curve"/>
      <point x="209" y="-48"/>
      <point x="355" y="13"/>
      <point x="355" y="13" type="curve"/>
      <point x="355" y="338" type="line"/>
      <point x="215" y="338" type="line"/>
      <point x="215" y="81" type="line"/>
      <point x="215" y="37"/>
      <point x="188" y="18"/>
      <point x="166" y="8" type="curve"/>
      <point x="183" y="-12"/>
      <point x="203" y="-61"/>
    </contour>
  </outline>
</glyph>
<glyph name="ety089_cid44459_EL" format="1">
  <advance width="1000"/>
  <outline>
    <contour>
      <point x="389" y="543" type="line"/>
      <point x="128" y="543" type="line"/>
      <point x="128" y="515" type="line"/>
      <point x="360" y="515" type="line"/>
      <point x="360" y="261" type="line"/>
      <point x="128" y="261" type="line"/>
      <point x="128" y="231" type="line"/>
      <point x="389" y="231" type="line"/>
    </contour>
    <contour>
      <point x="150" y="542" type="line"/>
      <point x="121" y="542" type="line"/>
      <point x="121" y="46" type="line"/>
      <point x="121" y="7"/>
      <point x="88" y="-14"/>
      <point x="73" y="-21" type="curve"/>
      <point x="80" y="-29"/>
      <point x="87" y="-41"/>
      <point x="91" y="-49" type="curve"/>
      <point x="150" y="0" type="line"/>
    </contour>
  </outline>
</glyph>
<glyph name="ety090_cid44605_H" format="1">
  <advance width="1000"/>
  <outline>
    <contour>
      <point x="790" y="267" type="line"/>
      <point x="287" y="267" type="line"/>
      <point x="287" y="205" type="line"/>
      <point x="657" y="205" type="line"/>
      <point x="657" y="110" type="line"/>
      <point x="287" y="110" type="line"/>
      <point x="287" y="48" type="line"/>
      <point x="790" y="48" type="line"/>
    </contour>
    <contour>
      <point x="215" y="-96" type="curve"/>
      <point x="215" y="-55"/>
      <point x="346" y="12"/>
      <point x="346" y="12" type="curve"/>
      <point x="346" y="266" type="line"/>
      <point x="215" y="266" type="line"/>
      <point x="215" y="93" type="line"/>
      <point x="215" y="49"/>
      <point x="187" y="24"/>
      <point x="164" y="12" type="curve"/>
      <point x="183" y="-13"/>
      <point x="208" y="-66"/>
    </contour>
  </outline>
</glyph>
<glyph name="ety091_cid44608_EL" format="1">
  <advance width="1000"/>
  <outline>
    <contour>
      <point x="756" y="289" type="line"/>
      <point x="264" y="289" type="line"/>
      <point x="264" y="260" type="line"/>
      <point x="726" y="260" type="line"/>
      <point x="726" y="119" type="line"/>
      <point x="264" y="119" type="line"/>
      <point x="264" y="89" type="line"/>
      <point x="756" y="89" type="line"/>
    </contour>
    <contour>
      <point x="219" y="-72" type="curve"/>
      <point x="219" y="-58"/>
      <point x="282" y="-28"/>
      <point x="282" y="-28" type="curve"/>
      <point x="282" y="288" type="line"/>
      <point x="251" y="288" type="line"/>
      <point x="251" y="19" type="line"/>
      <point x="251" y="-18"/>
      <point x="218" y="-36"/>
      <point x="201" y="-42" type="curve"/>
      <point x="208" y="-51"/>
      <point x="216" y="-64"/>
    </contour>
  </outline>
</glyph>
<glyph name="ety092_cid44608_H" format="1">
  <advance width="1000"/>
  <outline>
    <contour>
      <point x="781" y="270" type="line"/>
      <point x="287" y="270" type="line"/>
      <point x="287" y="208" type="line"/>
      <point x="648" y="208" type="line"/>
      <point x="648" y="115" type="line"/>
      <point x="287" y="115" type="line"/>
      <point x="287" y="53" type="line"/>
      <point x="781" y="53" type="line"/>
    </contour>
    <contour>
      <point x="209" y="-97" type="curve"/>
      <point x="209" y="-63"/>
      <point x="359" y="-17"/>
      <point x="359" y="-17" type="curve"/>
      <point x="359" y="271" type="line"/>
      <point x="224" y="271" type="line"/>
      <point x="224" y="41" type="line"/>
      <point x="224" y="5"/>
      <point x="194" y="-9"/>
      <point x="171" y="-16" type="curve"/>
      <point x="186" y="-32"/>
      <point x="204" y="-73"/>
    </contour>
  </outline>
</glyph>
<glyph name="ety093_cid44609_EL" format="1">
  <advance width="1000"/>
  <outline>
    <contour>
      <point x="756" y="288" type="line"/>
      <point x="264" y="288" type="line"/>
      <point x="264" y="259" type="line"/>
      <point x="726" y="259" type="line"/>
      <point x="726" y="118" type="line"/>
      <point x="264" y="118" type="line"/>
      <point x="264" y="88" type="line"/>
      <point x="756" y="88" type="line"/>
    </contour>
    <contour>
      <point x="235" y="-65" type="curve"/>
      <point x="235" y="-51"/>
      <point x="279" y="-21"/>
      <point x="279" y="-21" type="curve"/>
      <point x="279" y="287" type="line"/>
      <point x="248" y="287" type="line"/>
      <point x="248" y="26" type="line"/>
      <point x="248" y="-14"/>
      <point x="229" y="-29"/>
      <point x="218" y="-35" type="curve"/>
      <point x="224" y="-43"/>
      <point x="232" y="-57"/>
    </contour>
  </outline>
</glyph>
<glyph name="ety094_cid44609_H" format="1">
  <advance width="1000"/>
  <outline>
    <contour>
      <point x="781" y="270" type="line"/>
      <point x="287" y="270" type="line"/>
      <point x="287" y="208" type="line"/>
      <point x="648" y="208" type="line"/>
      <point x="648" y="115" type="line"/>
      <point x="287" y="115" type="line"/>
      <point x="287" y="53" type="line"/>
      <point x="781" y="53" type="line"/>
    </contour>
    <contour>
      <point x="223" y="-90" type="curve"/>
      <point x="223" y="-56"/>
      <point x="350" y="-10"/>
      <point x="350" y="-10" type="curve"/>
      <point x="350" y="269" type="line"/>
      <point x="215" y="269" type="line"/>
      <point x="215" y="60" type="line"/>
      <point x="215" y="28"/>
      <point x="199" y="14"/>
      <point x="181" y="6" type="curve"/>
      <point x="198" y="-15"/>
      <point x="218" y="-63"/>
    </contour>
  </outline>
</glyph>
<glyph name="ety095_cid44613_H" format="1">
  <advance width="1000"/>
  <outline>
    <contour>
      <point x="649" y="812" type="line"/>
      <point x="401" y="812" type="line"/>
      <point x="401" y="751" type="line"/>
      <point x="540" y="751" type="line"/>
      <point x="540" y="650" type="line"/>
      <point x="401" y="650" type="line"/>
      <point x="401" y="589" type="line"/>
      <point x="649" y="589" type="line"/>
    </contour>
    <contour>
      <point x="344" y="430" type="curve"/>
      <point x="344" y="470"/>
      <point x="462" y="532"/>
      <point x="462" y="532" type="curve"/>
      <point x="462" y="813" type="line"/>
      <point x="345" y="813" type="line"/>
      <point x="345" y="581" type="line"/>
      <point x="345" y="536"/>
      <point x="326" y="517"/>
      <point x="309" y="507" type="curve"/>
      <point x="322" y="494"/>
      <point x="339" y="454"/>
    </contour>
  </outline>
</glyph>
<glyph name="ety096_cid44614_EL" format="1">
  <advance width="1000"/>
  <outline>
    <contour>
      <point x="758" y="281" type="line"/>
      <point x="236" y="281" type="line"/>
      <point x="236" y="252" type="line"/>
      <point x="728" y="252" type="line"/>
      <point x="728" y="120" type="line"/>
      <point x="251" y="120" type="line"/>
      <point x="251" y="90" type="line"/>
      <point x="758" y="90" type="line"/>
    </contour>
    <contour>
      <point x="209" y="-75" type="curve"/>
      <point x="209" y="-62"/>
      <point x="270" y="-44"/>
      <point x="270" y="-44" type="curve"/>
      <point x="270" y="269" type="line"/>
      <point x="236" y="269" type="line"/>
      <point x="236" y="3" type="line"/>
      <point x="236" y="-31"/>
      <point x="210" y="-38"/>
      <point x="194" y="-41" type="curve"/>
      <point x="200" y="-51"/>
      <point x="207" y="-65"/>
    </contour>
  </outline>
</glyph>
<glyph name="ety097_cid44614_H" format="1">
  <advance width="1000"/>
  <outline>
    <contour>
      <point x="749" y="273" type="line"/>
      <point x="257" y="273" type="line"/>
      <point x="257" y="209" type="line"/>
      <point x="612" y="209" type="line"/>
      <point x="612" y="119" type="line"/>
      <point x="257" y="119" type="line"/>
      <point x="257" y="55" type="line"/>
      <point x="749" y="55" type="line"/>
    </contour>
    <contour>
      <point x="225" y="-98" type="curve"/>
      <point x="225" y="-59"/>
      <point x="357" y="-6"/>
      <point x="357" y="-6" type="curve"/>
      <point x="357" y="274" type="line"/>
      <point x="227" y="274" type="line"/>
      <point x="227" y="55" type="line"/>
      <point x="227" y="15"/>
      <point x="207" y="-1"/>
      <point x="188" y="-9" type="curve"/>
      <point x="202" y="-26"/>
      <point x="221" y="-72"/>
    </contour>
  </outline>
</glyph>
<glyph name="ety099_cid44628_EL" format="1">
  <advance width="1000"/>
  <outline>
    <contour>
      <point x="805" y="238" type="line"/>
      <point x="313" y="238" type="line"/>
      <point x="313" y="209" type="line"/>
      <point x="775" y="209" type="line"/>
      <point x="775" y="86" type="line"/>
      <point x="313" y="86" type="line"/>
      <point x="313" y="57" type="line"/>
      <point x="805" y="57" type="line"/>
    </contour>
    <contour>
      <point x="275" y="-73" type="curve"/>
      <point x="275" y="-61"/>
      <point x="322" y="-49"/>
      <point x="322" y="-49" type="curve"/>
      <point x="322" y="237" type="line"/>
      <point x="292" y="237" type="line"/>
      <point x="292" y="-3" type="line"/>
      <point x="292" y="-34"/>
      <point x="274" y="-38"/>
      <point x="262" y="-40" type="curve"/>
      <point x="267" y="-50"/>
      <point x="273" y="-65"/>
    </contour>
  </outline>
</glyph>
<glyph name="ety102_cid45807_H" format="1">
  <advance width="1000"/>
  <outline>
    <contour>
      <point x="652" y="808" type="line"/>
      <point x="478" y="808" type="line"/>
      <point x="478" y="686" type="line"/>
      <point x="557" y="686" type="line"/>
      <point x="557" y="443" type="line"/>
      <point x="478" y="443" type="line"/>
      <point x="478" y="321" type="line"/>
      <point x="652" y="321" type="line"/>
    </contour>
    <contour>
      <point x="422" y="-54" type="curve"/>
      <point x="422" y="-16"/>
      <point x="509" y="53"/>
      <point x="509" y="53" type="curve"/>
      <point x="509" y="809" type="line"/>
      <point x="410" y="809" type="line"/>
      <point x="410" y="119" type="line"/>
      <point x="410" y="70"/>
      <point x="389" y="38"/>
      <point x="371" y="24" type="curve"/>
      <point x="388" y="7"/>
      <point x="413" y="-32"/>
    </contour>
  </outline>
</glyph>
<glyph name="ety104_cid46451_H" format="1">
  <advance width="1000"/>
  <outline>
    <contour>
      <point x="831" y="432" type="line"/>
      <point x="296" y="432" type="line"/>
      <point x="296" y="373" type="line"/>
      <point x="690" y="373" type="line"/>
      <point x="690" y="279" type="line"/>
      <point x="296" y="279" type="line"/>
      <point x="296" y="220" type="line"/>
      <point x="831" y="220" type="line"/>
    </contour>
    <contour>
      <point x="318" y="431" type="line"/>
      <point x="177" y="431" type="line"/>
      <point x="177" y="84" type="line"/>
      <point x="318" y="84" type="line"/>
    </contour>
  </outline>
</glyph>
<glyph name="ety106_cid47363_H" format="1">
  <advance width="1000"/>
  <outline>
    <contour>
      <point x="939" y="819" type="line"/>
      <point x="598" y="819" type="line"/>
      <point x="598" y="695" type="line"/>
      <point x="809" y="695" type="line"/>
      <point x="809" y="470" type="line"/>
      <point x="598" y="470" type="line"/>
      <point x="598" y="346" type="line"/>
      <point x="939" y="346" type="line"/>
    </contour>
    <contour>
      <point x="534" y="-102" type="curve"/>
      <point x="534" y="-56"/>
      <point x="662" y="-11"/>
      <point x="662" y="-11" type="curve"/>
      <point x="662" y="818" type="line"/>
      <point x="530" y="818" type="line"/>
      <point x="530" y="79" type="line"/>
      <point x="530" y="41"/>
      <point x="511" y="25"/>
      <point x="491" y="16" type="curve"/>
      <point x="509" y="-11"/>
      <point x="528" y="-68"/>
    </contour>
  </outline>
</glyph>
<glyph name="ety107_cid47436_H" format="1">
  <advance width="1000"/>
  <outline>
    <contour>
      <point x="932" y="817" type="line"/>
      <point x="594" y="817" type="line"/>
      <point x="594" y="693" type="line"/>
      <point x="799" y="693" type="line"/>
      <point x="799" y="425" type="line"/>
      <point x="594" y="425" type="line"/>
      <point x="594" y="301" type="line"/>
      <point x="932" y="301" type="line"/>
    </contour>
    <contour>
      <point x="508" y="-99" type="curve"/>
      <point x="508" y="-54"/>
      <point x="627" y="17"/>
      <point x="627" y="17" type="curve"/>
      <point x="627" y="818" type="line"/>
      <point x="501" y="818" type="line"/>
      <point x="501" y="92" type="line"/>
      <point x="501" y="44"/>
      <point x="475" y="15"/>
      <point x="453" y="0" type="curve"/>
      <point x="472" y="-21"/>
      <point x="499" y="-71"/>
    </contour>
  </outline>
</glyph>
<glyph name="ety108_cid47562_EL" format="1">
  <advance width="1000"/>
  <outline>
    <contour>
      <point x="280" y="720" type="line"/>
      <point x="91" y="720" type="line"/>
      <point x="91" y="691" type="line"/>
      <point x="251" y="691" type="line"/>
      <point x="251" y="346" type="line"/>
      <point x="100" y="346" type="line"/>
      <point x="100" y="317" type="line"/>
      <point x="280" y="317" type="line"/>
    </contour>
    <contour>
      <point x="70" y="-17" type="curve"/>
      <point x="70" y="-4"/>
      <point x="121" y="31"/>
      <point x="121" y="31" type="curve"/>
      <point x="121" y="719" type="line"/>
      <point x="91" y="719" type="line"/>
      <point x="91" y="77" type="line"/>
      <point x="91" y="37"/>
      <point x="65" y="18"/>
      <point x="51" y="11" type="curve"/>
      <point x="58" y="3"/>
      <point x="66" y="-10"/>
    </contour>
  </outline>
</glyph>
<glyph name="ety110_cid61008_EL" format="1">
  <advance width="1000"/>
  <outline>
    <contour>
      <point x="865" y="568" type="line"/>
      <point x="464" y="568" type="line"/>
      <point x="464" y="538" type="line"/>
      <point x="835" y="538" type="line"/>
      <point x="835" y="287" type="line"/>
      <point x="464" y="287" type="line"/>
      <point x="464" y="258" type="line"/>
      <point x="865" y="258" type="line"/>
    </contour>
    <contour>
      <point x="427" y="-68" type="curve"/>
      <point x="427" y="-56"/>
      <point x="481" y="-29"/>
      <point x="481" y="-29" type="curve"/>
      <point x="481" y="569" type="line"/>
      <point x="451" y="569" type="line"/>
      <point x="451" y="17" type="line"/>
      <point x="451" y="-19"/>
      <point x="426" y="-33"/>
      <point x="412" y="-38" type="curve"/>
      <point x="417" y="-47"/>
      <point x="425" y="-60"/>
    </contour>
  </outline>
</glyph>
